<?xml version="1.0" standalone="no"?>
<!DOCTYPE svg PUBLIC "-//W3C//DTD SVG 20010904//EN"
 "http://www.w3.org/TR/2001/REC-SVG-20010904/DTD/svg10.dtd">
<svg version="1.0" xmlns="http://www.w3.org/2000/svg"
 width="300.000000pt" height="300.000000pt" viewBox="0 0 300.000000 300.000000"
 preserveAspectRatio="xMidYMid meet">
<metadata>
Created by potrace 1.11, written by Peter Selinger 2001-2013
</metadata>
<g transform="translate(0.000000,300.000000) scale(0.100000,-0.100000)"
fill="#000000" stroke="none">
<path d="M1399 2996 c-2 -2 -31 -6 -64 -9 -33 -4 -85 -11 -115 -17 -30 -6 -65
-13 -76 -16 -53 -10 -165 -49 -248 -86 -438 -192 -764 -595 -860 -1061 -25
-117 -31 -181 -31 -302 1 -142 10 -227 40 -350 126 -530 527 -949 1048 -1095
97 -27 96 -26 257 -50 55 -8 274 -5 340 4 19 3 58 10 85 16 28 6 62 12 77 15
40 6 202 62 266 91 308 141 580 407 727 709 41 85 97 237 109 297 44 214 53
330 37 480 -20 204 -65 368 -146 533 -221 453 -648 760 -1155 830 -54 8 -285
16 -291 11z m257 -211 c19 -3 51 -8 72 -11 236 -37 499 -177 688 -368 65 -65
164 -189 164 -205 0 -3 -26 -19 -57 -36 -82 -43 -178 -143 -250 -263 -35 -56
-63 -107 -63 -112 0 -24 -19 -3 -77 84 -142 211 -266 318 -406 351 -94 22
-313 14 -397 -15 -99 -33 -183 -84 -252 -153 -79 -78 -116 -131 -175 -251
l-45 -95 -54 104 c-81 159 -151 255 -219 302 -29 20 -110 50 -150 56 -11 1
-21 7 -22 12 -4 20 124 180 202 252 217 203 502 333 765 350 47 3 86 6 87 8 5
3 154 -4 189 -10z m34 -741 c96 -28 180 -98 261 -216 21 -31 39 -59 39 -61 0
-2 22 -44 49 -94 27 -49 52 -99 55 -111 11 -33 -174 -364 -246 -442 -67 -73
-150 -124 -250 -155 -74 -23 -214 -16 -280 13 -47 20 -116 83 -180 162 -53 66
-171 315 -162 343 3 12 37 85 76 162 99 200 167 284 284 350 107 61 248 81
354 49z m1021 -84 c2 -13 4 -21 12 -40 9 -25 27 -86 32 -109 2 -13 7 -32 11
-43 3 -11 7 -30 9 -41 1 -12 6 -44 10 -72 10 -61 10 -230 1 -306 -16 -132 -69
-315 -88 -303 -11 7 -8 924 4 924 4 0 9 -4 9 -10z m-2325 -103 c0 -56 3 -163
7 -237 4 -74 10 -225 13 -335 3 -110 7 -205 9 -212 2 -7 -14 -16 -38 -22 -23
-5 -51 -12 -62 -16 -18 -6 -24 2 -43 62 -47 146 -64 251 -65 398 0 122 8 196
34 300 29 118 36 132 77 149 67 27 67 27 68 -87z m2241 -327 c-2 -231 -6 -422
-8 -424 -6 -6 -39 23 -71 62 l-27 33 3 327 c3 180 5 334 5 343 1 13 83 78 99
79 2 0 1 -189 -1 -420z m-2110 349 c41 -53 48 -67 49 -112 1 -29 5 -119 9
-202 12 -250 12 -379 2 -400 -9 -19 -18 -28 -73 -77 -21 -18 -21 -18 -21 19
-1 21 -3 83 -7 138 -3 55 -8 206 -12 335 -3 129 -7 263 -8 298 -1 34 1 62 6
62 4 0 29 -27 55 -61z m1943 -251 c-1 -95 -3 -205 -3 -245 0 -40 -4 -70 -7
-68 -9 6 -130 252 -130 264 0 20 130 234 138 227 2 -3 3 -82 2 -178z m-1753
-82 c18 -38 33 -78 33 -89 0 -18 -75 -187 -83 -187 -4 0 -6 42 -12 270 -3 141
-3 144 13 110 9 -19 31 -66 49 -104z m1630 -434 c68 -103 150 -192 214 -234
27 -17 49 -38 49 -45 0 -25 -111 -167 -200 -254 -139 -136 -327 -252 -504
-309 -58 -19 -75 -24 -135 -36 -14 -3 -28 -7 -31 -9 -25 -15 -234 -23 -355
-12 -249 21 -498 128 -710 305 -101 84 -268 282 -252 298 3 3 20 8 39 10 73
11 140 36 175 67 101 88 127 121 189 245 l42 84 18 -33 c16 -32 106 -177 129
-208 57 -77 212 -179 300 -196 74 -14 90 -16 180 -19 182 -6 365 60 470 170
111 115 141 158 209 296 l48 97 35 -67 c19 -37 59 -104 90 -150z"/>
<path d="M1411 1830 c-27 -12 -71 -56 -71 -71 0 -6 5 -19 11 -31 9 -17 17 -19
54 -14 l43 7 -1 -218 c-1 -212 -1 -219 22 -260 31 -55 56 -63 153 -55 28 3 58
43 53 70 -7 42 -25 55 -67 48 -31 -5 -39 -3 -48 14 -7 13 -10 101 -8 249 3
203 1 232 -13 247 -20 20 -95 28 -128 14z"/>
</g>
</svg>
